<svg width="31" height="28" viewBox="0 0 31 28" fill="none" xmlns="http://www.w3.org/2000/svg">
<path d="M30.6578 0.243206C30.5219 0.124176 30.3565 0.0450348 30.1794 0.0143238C30.0023 -0.0163871 29.8204 0.00249759 29.6531 0.0689402L1.09541 11.3976C0.748057 11.5354 0.454176 11.7837 0.257901 12.1052C0.0616259 12.4267 -0.0264481 12.8041 0.00690599 13.1807C0.0402601 13.5573 0.193242 13.9127 0.442876 14.1936C0.69251 14.4746 1.02532 14.6658 1.39133 14.7387L9.01762 16.2571V24.8546C9.01777 25.2532 9.13543 25.6427 9.35548 25.973C9.57554 26.3033 9.88795 26.5594 10.2526 26.7085C10.6173 26.8576 11.0176 26.8928 11.4022 26.8096C11.7867 26.7264 12.138 26.5286 12.4108 26.2416L16.1648 22.2949L22.024 27.5015C22.3817 27.8223 22.8428 27.9996 23.3204 28C23.529 27.9995 23.7363 27.9663 23.9348 27.9014C24.2603 27.797 24.5531 27.608 24.7841 27.3531C25.015 27.0982 25.176 26.7864 25.251 26.4487L30.9749 1.22452C31.0151 1.04719 31.0069 0.862089 30.951 0.689165C30.8951 0.51624 30.7938 0.362049 30.6578 0.243206ZM1.69711 13.0517C1.69172 13.037 1.69172 13.0208 1.69711 13.006C1.70348 13.001 1.71062 12.9972 1.71825 12.9946L24.2237 4.06419L9.66723 14.6344L1.71825 13.0574L1.69711 13.0517ZM11.1933 25.0503C11.1545 25.0912 11.1045 25.1194 11.0498 25.1314C10.9951 25.1433 10.9381 25.1385 10.8861 25.1175C10.8341 25.0965 10.7895 25.0603 10.7579 25.0135C10.7262 24.9667 10.7091 24.9114 10.7086 24.8546V17.4426L14.8923 21.1565L11.1933 25.0503ZM23.6037 26.0617C23.5933 26.1099 23.5703 26.1545 23.537 26.1907C23.5038 26.2269 23.4616 26.2534 23.4148 26.2673C23.3671 26.2843 23.3158 26.288 23.2662 26.2779C23.2166 26.2679 23.1706 26.2445 23.133 26.2102L11.2215 15.6186L28.8865 2.78577L23.6037 26.0617Z" fill="#2D2D2D"/>
</svg>
