<svg width="85" height="54" viewBox="0 0 85 54" fill="none" xmlns="http://www.w3.org/2000/svg">
<path d="M21.6538 20.6979C21.3299 20.8302 21.5713 21.7082 21.8327 21.8585C22.3757 22.1707 23.7193 21.657 24.2089 21.4054C24.7672 21.1186 25.072 19.9244 24.9129 19.3349C24.6909 18.5124 23.3386 19.0343 22.8147 19.1757C21.7868 19.4531 22.8522 21.5984 23.0848 21.5207C23.6251 21.3402 23.479 20.2272 22.7807 20.3938C21.9871 20.5831 21.2022 20.8197 20.4143 21.0323C19.2523 21.3459 21.8211 23.1109 22.6575 23.0733C23.3636 23.0416 24.2826 20.2303 22.4409 20.7273C21.19 21.0648 18.1051 21.2293 19.7989 23.1327C20.2738 23.6663 21.4685 24.1912 22.2246 24.1572C23.0657 24.1195 23.0735 22.4208 23.1091 21.8097C23.2203 19.9002 20.4432 21.2663 19.4609 21.5314C18.8074 21.7077 19.124 22.5117 19.4251 22.9918C20.0463 23.9823 22.1182 24.1994 23.117 23.9299C24.5569 23.5413 24.548 22.2286 24.4957 20.925C24.4805 20.5449 24.2411 18.3457 23.7852 18.2422C22.7784 18.0135 19.3076 19.1712 19.6988 20.6209C20.2863 22.7983 23.4515 24.3277 25.6019 23.2325C26.7547 22.6454 25.8332 20.0574 25.5958 19.1775C25.2146 17.7648 24.9105 16.507 23.0562 16.9344C20.7638 17.4628 17.3835 18.3131 18.1887 21.2971C19.0179 24.3698 24.6696 25.203 25.0095 21.4849C25.1332 20.1309 25.2472 18.7818 24.8906 17.4603C24.6273 16.4842 24.2416 16.5947 23.2816 16.8736C20.2079 17.7667 20.7193 24.5187 23.0776 25.8748C24.2468 26.5471 25.6346 26.7437 26.9075 26.2787C28.318 25.7633 27.37 22.9982 27.0693 21.95C26.5556 20.1599 25.4373 19.4621 23.6214 19.9252C21.5624 20.4502 20.3673 20.7153 19.4519 22.7427C17.9003 26.1792 22.2896 25.3621 24.2099 24.8439C25.8158 24.4106 26.0856 23.3996 25.8251 21.8693C25.6769 20.9986 25.5661 19.7308 24.4363 19.759C22.0429 19.8187 19.1071 23.7686 21.021 25.9193C21.5279 26.4889 23.7076 25.7048 24.3673 25.5268C25.346 25.2627 25.2108 24.8193 24.9415 23.9211C24.3328 21.8913 19.5806 21.2045 18.2537 22.9317C17.4939 23.9208 16.4112 27.1638 18.5236 26.6201C21.054 25.9687 23.2409 25.54 24.868 23.3499C25.4901 22.5125 25.6572 21.5332 25.2349 20.5778C24.66 19.2773 22.5383 19.6612 21.4742 19.8329C19.638 20.1293 18.7781 20.8303 18.6273 22.7235C18.5366 23.8634 18.8714 26.4935 20.0992 26.9337C21.4639 27.423 23.3992 27.1019 24.5555 26.1745C26.1398 24.9039 25.7055 22.4199 25.4666 20.6899C25.29 19.411 24.9991 18.3399 23.5205 18.5554C21.2737 18.8828 20.261 19.5957 19.2321 21.5797C18.4332 23.1204 18.4177 24.8338 18.8674 26.5004C19.3042 28.1193 21.4069 28.0182 22.7521 27.6552C24.5455 27.1713 25.2098 26.4718 25.1104 24.5472C25.0036 22.4789 24.4355 19.8346 22.9433 18.3081C22.2765 17.626 21.3122 17.5393 20.4743 18.1684C19.0873 19.2099 19.3514 21.6399 19.2917 23.0949C19.2498 24.1184 19.2251 26.0841 20.3822 26.5887C21.2053 26.9476 23.3778 26.9804 24.0594 26.2278C25.3539 24.7984 24.7704 21.0659 22.3711 21.7133C20.1355 22.3165 19.0029 23.0842 18.1231 25.3849C17.5371 26.9174 17.2825 28.9117 17.7715 30.5036C18.3259 32.3085 22.1603 30.8002 23.293 30.3569C25.5972 29.4553 26.6001 27.331 26.729 24.9701C26.8599 22.5718 26.6891 20.0922 24.327 18.9557C21.7201 17.7014 18.543 17.7682 15.8242 18.6575C13.6946 19.3541 12.3859 20.9922 12.2255 23.2419C12.0705 25.4162 13.1011 28.8708 15.0749 29.9685C17.2246 31.1641 20.4349 31.6904 22.8272 31.0199C26.6419 29.9508 27.0403 25.4951 26.9451 22.0372C26.897 20.2916 26.5396 18.5126 26.1527 16.8108C25.914 15.7613 25.7376 14.2433 24.9823 13.4192C23.3817 11.673 20.3548 12.4689 18.6135 13.5124C15.7182 15.2474 13.3359 19.8464 13.1811 23.199C13.1286 24.3358 13.4908 25.3921 13.7831 26.4754C14.2597 28.2416 14.6332 28.7861 16.428 29.3079C18.8915 30.0241 22.7376 29.3765 24.9939 28.098C27.278 26.8038 26.6928 23.4507 25.9197 21.3736C24.4458 17.4137 17.2835 16.814 15.3075 20.476C11.8191 26.9408 23.509 26.4981 26.8307 26.0442C30.1851 25.5858 35.0211 24.9353 35.7076 20.9086C35.9912 19.2448 35.8996 15.9482 33.9618 15.335C31.107 14.4316 26.5773 15.7294 24.1199 17.2922C20.7176 19.4559 17.87 24.0071 17.1232 27.9517C16.784 29.7432 16.8716 33.2398 19.0641 33.701C21.1324 34.1361 23.4054 33.4554 25.4085 32.9697C27.836 32.3809 30.2866 31.8946 31.6666 29.6288C33.834 26.0702 33.2952 22.4246 32.1969 18.5515C31.2696 15.2808 28.2504 12.7474 24.7619 12.9011C20.8684 13.0726 18.4438 15.2917 16.4682 18.6046C15.0641 20.9592 13.9693 24.3778 14.7072 27.1125C15.5145 30.1042 21.7668 29.2556 23.8005 29.0514C26.2376 28.8066 28.7896 28.3959 31.0662 27.4535C32.6541 26.7962 33.354 25.1229 33.8191 23.5674C34.3002 21.9581 34.3036 20.2532 33.9097 18.6266C33.6282 17.4641 33.4609 15.5703 32.6282 14.6739C29.8957 11.7325 23.9036 14.0399 20.8859 15.2633C16.5155 17.0352 12.9671 20.5718 10.5068 24.5386C9.85794 25.5847 8.1709 27.9334 9.2441 29.218C9.7551 29.8297 12.325 29.0725 12.9233 28.964C15.0923 28.5707 17.3073 28.0238 19.3953 27.3117C22.7805 26.1572 25.978 23.9025 26.5327 20.1605C26.7279 18.8435 26.2677 17.4221 24.7269 17.4508C21.0479 17.5191 18.3689 20.0681 16.7208 23.2245C15.0899 26.3478 13.9408 30.0289 14.7388 33.5517C15.0259 34.8191 15.2901 35.3128 16.678 35.312C19.0114 35.3107 21.7693 34.381 23.9056 33.523C28.1546 31.8163 31.5974 27.0637 32.4612 22.6174C33.0899 19.3815 32.3823 13.2082 29.3732 11.1732C26.4335 9.18514 23.1104 9.67063 20.087 11.2073C17.7636 12.3882 16.1984 15.5261 15.1374 17.7548C13.8426 20.4747 12.6133 23.5493 12.3064 26.5783C12.1167 28.451 12.5745 30.3814 13.1649 32.1495C13.9384 34.4657 15.8624 35.0581 18.1648 35.2466C21.906 35.5529 25.6742 34.5396 29.2649 33.6216C33.2635 32.5992 36.2303 31.1076 38.7921 27.7598C40.306 25.7814 41.6157 23.8709 41.7053 21.332C41.7899 18.9374 41.6569 16.3702 40.7283 14.127C38.4533 8.63102 30.2067 11.1632 26.2094 12.2418C20.2429 13.8518 15.2323 18.0232 11.9365 23.2662C9.83365 26.6115 8.50523 31.1766 9.81526 35.0683C10.9486 38.4352 17.0761 37.8996 19.7684 37.4064C22.8323 36.8452 26.4205 36.3 29.0193 34.4535C31.6017 32.6187 33.3589 29.8861 34.1345 26.8271C35.3842 21.8977 33.7797 14.4115 30.4065 10.572C27.2087 6.93219 21.8412 6.15228 17.4532 7.61956C10.7326 9.86687 7.43108 20.847 14.4886 24.6596C18.6006 26.8809 23.6357 27.497 28.1868 26.3902C33.2016 25.1706 33.6571 19.4033 33.1935 15.1259C32.7825 11.3343 32.2713 5.37054 28.1716 3.73335C22.1346 1.32249 18.3906 8.68552 16.3716 13.0696C14.0277 18.1592 12.1041 24.5519 12.8585 30.2173C13.0982 32.0177 13.3121 34.0822 15.2529 34.81C18.2899 35.9487 21.9724 35.1884 25.0491 34.6248C29.6635 33.7795 36.3718 32.3106 38.4041 27.3675C39.5934 24.4749 39.2223 20.1747 36.0773 18.794C32.3816 17.1715 26.7078 19.2123 23.3436 20.8867C19.3246 22.8869 15.9515 27.4841 14.3312 31.5931C13.5729 33.5161 13.0915 36.6879 15.6945 37.243C19.8264 38.1242 25.5995 36.595 29.3548 34.9003C32.7994 33.3457 32.9221 29.696 32.1359 26.4395C30.929 21.4406 27.7121 18.5163 22.425 18.1794C16.9906 17.8331 10.6366 21.1148 7.29165 25.218C4.70126 28.3957 1.88665 32.5868 2.60117 36.9075C3.17588 40.3827 10.1208 38.3483 12.2862 37.8537C15.9668 37.0132 19.8031 36.242 22.8264 33.8545C25.0317 32.1128 27.1076 30.0729 28.4225 27.5624C29.8584 24.8209 30.4675 21.137 29.145 18.1929C28.007 15.6596 24.6967 16.0253 22.5089 16.5985C18.2054 17.7261 15.274 20.2542 13.9381 24.6604C13.3236 26.6873 12.5639 31.7788 15.1556 32.9557C17.2212 33.8936 20.2502 33.8014 22.4505 33.6066C25.1928 33.3639 27.8967 32.5535 30.5437 31.8392C35.111 30.6068 37.9274 28.2597 37.3985 23.1926C36.846 17.8999 33.0337 15.2749 28.2379 13.7362C25.2198 12.7679 20.299 13.4236 18.1929 15.9363C15.8377 18.7463 14.365 22.9956 15.2705 26.6113C15.6094 27.9646 15.8438 29.5851 17.0596 30.4539C19.2827 32.0424 22.6024 32.7822 25.2694 33.1012C28.1862 33.4501 31.3963 33.1568 34.288 32.7229C37.6055 32.225 41.3877 31.2323 42.9637 27.9371C44.2557 25.2358 43.6653 21.5336 43.1945 18.6869C42.602 15.1038 41.6271 10.8428 39.5784 7.77472C37.3238 4.39808 33.4016 0.173649 28.9698 1.31502C23.9433 2.60955 21.6072 8.24282 19.9318 12.6731C18.0334 17.6928 17.3535 22.3095 18.8978 27.4594C20.195 31.7854 24.9544 32.3012 28.8645 31.5401C32.4562 30.841 34.3496 29.0954 34.082 25.189C33.6983 19.5885 32.35 13.8757 27.0006 11.1418C23.3472 9.27471 19.1367 9.63391 15.6474 11.6799C13.6587 12.8461 12.6165 15.7167 11.7774 17.748C11.1172 19.3461 10.8434 21.0355 10.9802 22.7586C11.0743 23.9439 11.0801 25.6494 11.9322 26.5852C13.3004 28.088 15.8648 28.3256 17.7405 28.497C20.7131 28.7687 23.4979 28.603 26.4138 27.9835C28.9165 27.4518 31.6763 27.1894 33.4848 25.2158C35.376 23.1518 36.8246 21.2161 36.7995 18.3842C36.7782 15.9801 36.4955 13.5157 35.9545 11.1705C35.3733 8.65124 34.5853 6.37927 32.2721 4.99104C30.4079 3.87219 28.3355 3.75588 26.2279 4.09665C23.9785 4.46035 21.3116 5.03139 19.2547 6.03199C16.4121 7.4148 13.7871 10.6715 12.2624 13.3724C9.25083 18.7071 8.21988 25.8254 9.65926 31.7522C10.0211 33.2422 10.3253 35.1471 11.6654 36.1004C13.0414 37.0793 14.9999 37.7209 16.6919 37.753C20.5725 37.8267 26.3447 37.3802 28.1373 33.3751C30.8899 27.225 29.6047 20.3517 27.5793 14.1826C26.0421 9.5005 23.3485 5.87931 18.0799 6.8057C15.9336 7.18308 13.6941 7.72826 11.9372 9.0811C9.28029 11.127 7.14943 13.8215 5.28457 16.5851C2.69367 20.4246 0.80093 25.2498 1.31751 29.9599C1.8379 34.7047 6.16246 35.2863 10.1668 35.0272C13.9385 34.7831 17.6714 33.9571 21.2821 32.8607C25.4409 31.5979 28.5017 29.4674 31.582 26.4278C34.6989 23.3519 35.965 19.395 34.6129 15.1593C34.0897 13.5201 33.4932 12.2359 31.9684 11.3326C29.3595 9.78706 25.5871 8.63092 22.5314 8.66718C17.8747 8.72245 15.3014 11.413 14.7814 16.0374C14.428 19.1806 14.7687 22.4607 15.3734 25.5492C16.0083 28.7914 16.6136 32.9165 18.2667 35.8236C21.3871 41.3109 29.0115 42.6064 34.6549 41.7984C40.4387 40.9703 46.6642 39.5206 48.457 33.2115C49.2016 30.5911 49.3122 27.8705 48.8335 25.198C48.468 23.1572 48.1175 20.6671 46.7493 19.0172C43.8877 15.5664 39.2019 15.4881 35.3045 16.8264C29.1752 18.9311 25.5678 24.5325 23.4067 30.38C22.2989 33.3776 21.1134 36.6161 21.9743 39.8067C22.4367 41.5204 24.2694 40.7553 25.5734 40.1519C27.6084 39.2104 28.6012 35.9271 29.191 34.0445C30.5652 29.6585 30.5145 24.9295 29.6963 20.4352C29.0183 16.7106 27.8255 9.90446 23.3031 8.88879C19.0846 7.94136 16.8226 12.3749 15.6005 15.5881C13.8043 20.3104 12.9602 25.6294 13.7536 30.6474C13.9183 31.6887 14.196 33.3412 15.1802 33.943C16.6702 34.8542 19.3273 34.1439 20.8689 33.8185C26.3595 32.6593 30.654 28.1485 32.34 22.8651C33.2338 20.0641 33.2722 17.1424 32.825 14.2582C32.4455 11.8107 32.2236 8.47964 30.6691 6.41763C27.4797 2.18717 22.5818 1.93637 17.8583 3.34613C10.022 5.68493 8.30028 16.0126 9.14616 22.9311C9.76355 27.9808 10.7695 34.1886 15.4093 37.1319C19.3044 39.6027 25.2872 39.997 29.4841 37.9683C32.5188 36.5015 33.6632 33.456 34.2877 30.332C35.1074 26.231 35.2911 22.0502 34.8933 17.8911C34.5637 14.4451 34.0447 9.89755 32.201 6.91768C31.0563 5.06752 28.2954 5.5594 26.5479 6.07894C21.1455 7.68506 17.8764 13.6943 15.6859 18.4933C13.9765 22.2386 11.8675 26.8045 12.6254 31.0459C13.1955 34.2366 17.2306 33.5676 19.6615 33.1771C22.9944 32.6417 28.3905 32.1267 29.1457 28.0523C29.961 23.654 27.3217 18.6527 23.7793 16.2289C19.5406 13.3287 14.5337 13.7217 9.98551 15.7868C7.44565 16.94 6.07431 20.0304 4.88565 22.3748C3.5055 25.0968 2.58159 28.0551 1.95727 31.0365C1.48829 33.2761 1.364 35.4774 1.69806 37.7422C1.8983 39.0997 2.22118 41.2397 3.50185 42.0375C5.7414 43.4326 9.39427 43.0665 11.8772 42.7596C15.3244 42.3335 18.8101 41.4004 22.08 40.2483C27.1937 38.4466 32.6554 35.0475 34.4467 29.5771C35.7081 25.7247 36.0566 21.1115 33.3842 17.7744C30.5261 14.2052 25.2005 11.9676 20.6894 12.6433C17.2723 13.1551 14.0391 14.3103 12.0811 17.3302C8.8303 22.3441 7.96121 27.2055 9.70517 32.8682C11.4653 38.5835 21.7559 37.2119 25.647 34.7993C27.4102 33.706 28.1991 31.1589 28.8102 29.298C29.6082 26.8684 29.9616 24.3344 29.5675 21.7998C28.9613 17.9007 27.8508 13.5481 23.2077 13.0652C21.6504 12.9033 19.9566 13.3201 18.5034 13.851C16.1782 14.7006 14.7177 17.5274 13.681 19.6254C11.3248 24.3932 10.8747 30.0951 11.6755 35.2917C12.2035 38.7177 13.1426 43.4582 16.9269 44.6477C20.6009 45.8025 25.6432 43.8372 28.1368 41.1393C30.7493 38.3129 32.9253 33.845 32.8295 29.906C32.7825 27.9774 32.9902 24.602 31.1785 23.3397C29.1036 21.8939 26.0566 22.566 23.9915 23.5864C21.1003 25.0151 17.3257 26.6713 16.2598 30.0786C15.6329 32.0828 16.3481 34.1893 16.8725 36.1326C17.4039 38.102 17.7162 40.3824 18.8617 42.1107C19.8099 43.5413 21.1007 44.7807 22.4049 45.8829C24.4648 47.6239 27.2729 48.1461 29.8531 47.5C31.4961 47.0886 33.1262 46.6168 34.7614 46.1756C35.4119 46 36.1223 45.658 36.7914 45.883C37.5318 46.1321 38.229 47.2379 38.8452 47.7199C39.5172 48.2455 40.2192 49.0006 40.8215 49.6179C42.5215 51.3601 45.3237 52.1254 47.6293 52.4958C49.2336 52.7535 51.2108 52.9326 52.8434 52.9023C54.302 52.8752 55.7015 53.4505 57.1516 53.486C60.6241 53.5711 63.945 52.9172 67.3195 52.1394C68.3175 51.9093 69.6895 52.1497 70.6984 52.3157C72.1574 52.5557 73.4739 52.5174 74.9279 52.558C76.7477 52.6088 78.6155 52.9599 80.4004 52.4783C81.5648 52.1641 82.7293 51.8499 83.8937 51.5357" stroke="#4B87C8" stroke-opacity="0.66" stroke-width="0.5" stroke-linecap="round"/>
</svg>
